Coordinates
version=1
nRows=13
nColumns=34
inDegrees=yes

Units are S.I. units (second, meters, Newtons, ...)
If the header above contains a line with 'inDegrees', this indicates whether rotational values are in degrees (yes) or radians (no).

endheader
time	pelvis_tilt	pelvis_list	pelvis_rotation	pelvis_tx	pelvis_ty	pelvis_tz	hip_flexion_r	hip_adduction_r	hip_rotation_r	knee_angle_r	ankle_angle_r	subtalar_angle_r	mtp_angle_r	hip_flexion_l	hip_adduction_l	hip_rotation_l	knee_angle_l	ankle_angle_l	subtalar_angle_l	mtp_angle_l	lumbar_extension	lumbar_bending	lumbar_rotation	arm_flex_r	arm_add_r	arm_rot_r	elbow_flex_r	pro_sup_r	arm_flex_l	arm_add_l	arm_rot_l	elbow_flex_l	pro_sup_l
     13.60000000	    -14.80735549	      2.70064144	    -22.43561308	      0.10666423	      0.97573011	      0.10008200	     14.85237821	     -0.19474799	      9.04877632	      5.94641285	      8.50056042	     -2.11113498	      0.00000000	      4.65445515	     -2.26457502	    -34.53980706	      0.00000000	     12.38001740	      2.83184326	      0.00000000	     17.20967067	      1.10351723	    -45.37877230	    -10.62074422	    -12.59043645	     15.44812567	     18.28348909	     70.86495990	     15.59968090	     -7.99583497	     71.38896325	     31.44849306	     70.48609288
     13.61666670	    -14.70726348	      2.45471268	    -21.40039986	      0.10632816	      0.97409645	      0.09786882	     14.36576039	     -0.23780424	      8.28244067	      5.81683785	      8.61570809	     -2.21347816	      0.00000000	      4.53848470	     -2.38428928	    -33.50067857	      0.00000000	     12.14694424	      2.84754580	      0.00000000	     16.53751429	      0.97180120	    -44.08937611	     -4.59378200	     -9.02657325	     24.68045897	     16.28763125	     72.27110299	     15.61375754	     -7.67300336	     71.84837319	     29.87351157	     68.56072772
     13.63333330	    -14.61963053	      2.42534679	    -20.75618574	      0.10891012	      0.97554323	      0.09663711	     14.03602349	     -0.41635200	      7.91363504	      5.64747904	      8.54597148	     -2.28772759	      0.00000000	      4.45462872	     -2.30918162	    -33.13178395	      0.00000000	     11.91715063	      2.85906758	      0.00000000	     16.36607244	      0.89032929	    -42.37732974	     -0.02431723	     -6.77183125	     32.85092791	     16.08587581	     72.88950550	     15.23717734	     -7.15996205	     70.55733875	     28.61238770	     66.36251629
     13.65000000	    -14.38922809	      2.21317849	    -19.76811426	      0.10542041	      0.97609704	      0.09534117	     13.48237063	     -0.51307754	      7.21759269	      5.40102034	      8.49263998	     -2.63993758	      0.00000000	      4.33922516	     -2.35644696	    -32.21419078	      0.00000000	     11.56843337	      2.81753546	      0.00000000	     15.89094393	      1.02791950	    -40.75501309	      3.49949318	     -5.02434517	     37.70889018	     15.93146194	     73.25151857	     15.30750237	     -6.76972128	     70.76489255	     27.25550230	     65.79033207
     13.66666670	    -14.17778732	      2.09734185	    -18.80012837	      0.10314610	      0.97401310	      0.09329037	     13.02173904	     -0.68819741	      6.76270171	      5.09397094	      8.43613189	     -2.86788471	      0.00000000	      4.35513964	     -2.35115701	    -31.30473246	      0.00000000	     11.33815144	      2.73663478	      0.00000000	     15.33961757	      0.93154205	    -38.73488257	      6.04563121	     -4.22236280	     44.15861335	     15.50658034	     74.27485320	     15.57685634	     -6.60254991	     71.25846130	     26.67208473	     65.59882797
     13.68333330	    -14.17841444	      2.05509861	    -17.95715095	      0.10017716	      0.97133206	      0.09243638	     12.98138874	     -0.81267414	      6.45579553	      4.98349080	      8.57698867	     -3.05621000	      0.00000000	      4.62413168	     -2.36518384	    -30.60695198	      0.00000000	     11.27820735	      2.86282885	      0.00000000	     15.04938168	      0.81736045	    -36.42577764	      6.85105200	     -4.01741039	     45.30100413	     15.45599687	     74.46299010	     15.62808238	     -6.55005909	     71.05024892	     26.76939581	     65.57471809
     13.70000000	    -14.00049072	      1.88833128	    -17.08477372	      0.09923750	      0.97705254	      0.09214369	     12.75242285	     -0.82894522	      6.08890837	      4.95422002	      8.63362305	     -3.34427535	      0.00000000	      4.72432887	     -2.47607421	    -29.86865965	      0.00000000	     10.78789742	      2.92684397	      0.00000000	     14.65206339	      0.64504201	    -35.34029036	      8.17108992	     -4.46170422	     53.60096246	     15.89735896	     75.40212352	     15.39220107	     -7.03159632	     71.30528505	     26.47087952	     66.10715458
     13.71666670	    -13.82371267	      1.67194119	    -16.12929862	      0.10019980	      0.97374800	      0.09046801	     12.49017902	     -0.82562603	      5.60206428	      4.99193690	      8.79266558	     -3.75144493	      0.00000000	      4.76590259	     -2.59748791	    -29.04192078	      0.00000000	     10.62003662	      3.26258024	      0.00000000	     14.27018128	      0.53000895	    -34.23878857	      7.89707716	     -4.76466944	     53.82511010	     15.90580905	     75.37227347	     14.98108287	     -7.34217973	     71.12881135	     26.46870156	     66.10276501
     13.73333330	    -13.55720139	      1.40892236	    -15.34396992	      0.09952906	      0.97324552	      0.09027641	     12.12458948	     -0.72466314	      5.18972742	      5.08253612	      8.98784827	     -4.15436370	      0.00000000	      4.70613331	     -2.81421085	    -28.31218652	      0.16711539	     10.60937914	      3.40369096	      0.00000000	     13.81445804	      0.40501560	    -33.15337690	      6.97972543	     -5.30737115	     54.06316047	     15.88933927	     75.34589178	     14.46550056	     -7.81716553	     70.81687270	     26.46246502	     66.10226327
     13.75000000	    -12.96743169	      1.10788935	    -14.75942492	      0.10123904	      0.97479509	      0.08828911	     11.38173644	     -0.68491455	      5.03105672	      5.11774234	      8.93672818	     -4.59950283	      0.00000000	      4.26808973	     -2.97972591	    -27.60961796	      0.42174007	     10.44337364	      2.83414251	      0.00000000	     12.87452951	      0.39956467	    -31.86861848	      5.41955750	     -6.55411440	     53.62903482	     16.89582747	     74.66421499	     13.84928710	     -8.26194641	     68.42093361	     26.70008028	     66.26587791
     13.76666670	    -12.64704701	      0.93321355	    -14.03232107	      0.10352582	      0.97368191	      0.08464921	     10.90446109	     -0.78973465	      4.57726325	      5.23554080	      9.09858867	     -4.89848078	      0.00000000	      4.12349394	     -3.00451117	    -26.85527597	      0.59030732	     10.73906426	      2.99794657	      0.00000000	     12.47007860	      0.48841423	    -31.44407347	      4.23361598	     -7.24286397	     49.57839206	     17.43984353	     72.51205083	     12.42359107	     -8.45528572	     62.75247311	     26.62195422	     67.01303408
     13.78333330	    -12.54144464	      0.92829732	    -13.59360164	      0.09786371	      0.97053235	      0.08204461	     10.96633086	     -0.91584389	      4.62173039	      5.53636947	      9.29656623	     -5.65193837	      0.00000000	      4.23216747	     -2.89510319	    -26.16719254	      0.70027970	     10.75517840	      2.26627840	      0.00000000	     12.36686834	      0.43495220	    -30.33496390	      2.82437892	     -8.03338645	     45.22297261	     17.90510788	     71.19150559	     11.35663657	     -8.94258225	     58.32762173	     27.57693248	     68.69552857
     13.80000000	    -11.95438706	      0.83912188	    -12.90482510	      0.10493726	      0.97634669	      0.07976014	     10.26138830	     -1.21328953	      3.99967680	      5.76351212	      9.37526545	     -5.45767175	      0.00000000	      3.64458152	     -2.69541740	    -25.70397372	      0.68219716	     10.69573925	      2.60320428	      0.00000000	     11.87092147	      0.28813508	    -29.85656366	      1.61129664	     -8.42018280	     39.20683225	     18.35645536	     70.49327186	      9.87481643	     -8.96634268	     52.61783007	     27.12859531	     71.39773798
